<svg xmlns="http://www.w3.org/2000/svg" viewBox="0 0 512 512" role="img" aria-label="Alloy icon">
<rect width="512" height="512" rx="50" ry="50" fill="#2929E2"></rect>
<g fill="#FFFFFF"><path d="M146.5,174.2h-32.9l-50.5,134.6h20l12-32.1h69.8l12,32.1h20l-50.5-134.6ZM101.4,259.9l28.6-76.2,28.6,76.2h-57.2Z"></path><path d="M222.9,174.2v134.6h-18.4v-134.6h18.4Z"></path><path d="M255,174.2v134.6h-18.4v-134.6h18.4Z"></path><polygon points="435 214 405.8 279.5 376.6 214 356.7 214 387.9 284 403.8 284 378.9 339.8 398.8 339.8 454.9 214 435 214"></polygon><path d="M312.7,212.4c-27,0-49,21.9-49,49s21.9,49,49,49,49-21.9,49-49-21.9-49-49-49ZM312.7,293.5c-17.7,0-32.1-14.4-32.1-32.1s14.4-32.1,32.1-32.1,32.1,14.4,32.1,32.1-14.4,32.1-32.1,32.1Z"></path></g>
</svg>
