<svg xmlns="http://www.w3.org/2000/svg" viewBox="0 0 1000 422.6" fill="#000000" role="img" aria-label="Alloy">
<path d="M212.8,0h-83.9L0,343.6h51l30.7-82h178.1l30.7,82h51L212.8,0ZM97.8,218.7L170.8,24.1l73,194.6H97.8Z"></path><path d="M407.8,0v343.6h-46.9V0h46.9Z"></path><path d="M489.7,0v343.6h-46.9V0h46.9Z"></path><polygon points="949.2 101.5 874.7 268.7 800.1 101.5 749.4 101.5 829 280.1 869.6 280.2 806 422.6 856.8 422.6 1000 101.5 949.2 101.5"></polygon><path d="M637.1,97.6c-69,0-124.9,55.9-124.9,124.9s55.9,124.9,124.9,124.9,124.9-55.9,124.9-124.9-55.9-124.9-124.9-124.9ZM637.1,304.6c-45.3,0-82-36.7-82-82s36.7-82,82-82,82,36.7,82,82-36.7,82-82,82Z"></path>
</svg>
